<svg width="1200" height="430" viewBox="0 0 1200 430" fill="none" xmlns="http://www.w3.org/2000/svg">
  <defs>
    <linearGradient id="bg" x1="0" y1="0" x2="1200" y2="430" gradientUnits="userSpaceOnUse">
      <stop offset="0" stop-color="#0D1117"/>
      <stop offset="0.52" stop-color="#121B2E"/>
      <stop offset="1" stop-color="#18140C"/>
    </linearGradient>
    <linearGradient id="gold" x1="170" y1="75" x2="870" y2="280" gradientUnits="userSpaceOnUse">
      <stop offset="0" stop-color="#FFE66D"/>
      <stop offset="0.45" stop-color="#FFB703"/>
      <stop offset="1" stop-color="#F95738"/>
    </linearGradient>
    <linearGradient id="cyan" x1="0" y1="0" x2="1" y2="1">
      <stop offset="0" stop-color="#56CCF2"/>
      <stop offset="1" stop-color="#2F80ED"/>
    </linearGradient>
    <filter id="softShadow" x="-20%" y="-20%" width="140%" height="140%">
      <feDropShadow dx="0" dy="18" stdDeviation="18" flood-color="#000000" flood-opacity="0.45"/>
    </filter>
    <filter id="glow" x="-25%" y="-25%" width="150%" height="150%">
      <feGaussianBlur stdDeviation="7" result="blur"/>
      <feMerge>
        <feMergeNode in="blur"/>
        <feMergeNode in="SourceGraphic"/>
      </feMerge>
    </filter>
    <pattern id="grid" width="54" height="54" patternUnits="userSpaceOnUse">
      <path d="M54 0H0V54" stroke="#FFFFFF" stroke-opacity="0.055" stroke-width="1"/>
    </pattern>
  </defs>

  <rect width="1200" height="430" rx="34" fill="url(#bg)"/>
  <rect width="1200" height="430" rx="34" fill="url(#grid)"/>

  <path d="M-20 356C150 292 280 293 430 330C610 374 731 394 906 320C1011 276 1105 254 1220 283V430H-20V356Z" fill="#FFB703" fill-opacity="0.12"/>
  <path d="M-20 325C161 255 306 264 469 304C637 345 772 352 928 283C1042 233 1126 220 1220 238" stroke="#FFE66D" stroke-opacity="0.42" stroke-width="3"/>
  <path d="M-16 259C128 222 267 232 420 266C575 301 722 304 884 241C1015 190 1104 179 1215 195" stroke="#56CCF2" stroke-opacity="0.25" stroke-width="2"/>

  <g transform="translate(84 88)" filter="url(#softShadow)">
    <rect x="0" y="0" width="1032" height="254" rx="26" fill="#0D1117" fill-opacity="0.68" stroke="#FFFFFF" stroke-opacity="0.14"/>
    <g transform="translate(54 48)">
      <text x="8" y="118" font-family="Arial Black, Impact, sans-serif" font-size="84" font-weight="900" fill="#000000" opacity="0.85">shnwazdev</text>
      <text x="0" y="108" font-family="Arial Black, Impact, sans-serif" font-size="84" font-weight="900" fill="url(#gold)">shnwazdev</text>
      <text x="4" y="172" font-family="Consolas, Monaco, monospace" font-size="24" fill="#E6EDF3" opacity="0.92">Software Engineer / Web Developer / GitHub Pages Portfolio</text>
      <g transform="translate(0 198)">
        <rect x="0" y="0" width="186" height="36" rx="8" fill="#FFFFFF" fill-opacity="0.08" stroke="#FFFFFF" stroke-opacity="0.16"/>
        <circle cx="22" cy="18" r="7" fill="#56CCF2" filter="url(#glow)"/>
        <text x="40" y="24" font-family="Consolas, Monaco, monospace" font-size="16" fill="#E6EDF3">Live on Pages</text>
      </g>
      <g transform="translate(210 198)">
        <rect x="0" y="0" width="164" height="36" rx="8" fill="#FFFFFF" fill-opacity="0.08" stroke="#FFFFFF" stroke-opacity="0.16"/>
        <rect x="15" y="11" width="14" height="14" rx="3" fill="#FFE66D"/>
        <text x="40" y="24" font-family="Consolas, Monaco, monospace" font-size="16" fill="#E6EDF3">HTML/CSS/JS</text>
      </g>
    </g>

    <g transform="translate(800 46)">
      <path d="M64 0L173 50V168L64 118V0Z" fill="#FFD93D"/>
      <path d="M173 50L244 16V134L173 168V50Z" fill="#F95738"/>
      <path d="M64 0L135 -34L244 16L173 50L64 0Z" fill="#56CCF2"/>
      <path d="M64 0L173 50M173 50V168M173 50L244 16" stroke="#0D1117" stroke-width="5" stroke-linejoin="round"/>
      <circle cx="137" cy="76" r="30" fill="#0D1117" fill-opacity="0.85"/>
      <text x="123" y="86" font-family="Arial Black, Impact, sans-serif" font-size="34" fill="#FFFFFF">S</text>
    </g>
  </g>
</svg>
